<?xml version="1.0" standalone="no"?>
<!DOCTYPE svg PUBLIC "-//W3C//DTD SVG 20010904//EN"
 "http://www.w3.org/TR/2001/REC-SVG-20010904/DTD/svg10.dtd">
<svg version="1.0" xmlns="http://www.w3.org/2000/svg"
 width="500.000000pt" height="500.000000pt" viewBox="0 0 500.000000 500.000000"
 preserveAspectRatio="xMidYMid meet">

<g transform="translate(0.000000,500.000000) scale(0.100000,-0.100000)"
fill="#000000" stroke="none">
<path d="M2055 3647 l40 -23 0 -279 c0 -195 -4 -286 -12 -300 -6 -10 -26 -25
-45 -31 -30 -11 -23 -13 67 -13 100 0 100 0 62 16 -22 9 -39 24 -42 37 -3 11
-4 138 -3 281 l3 260 153 -187 c177 -217 232 -268 232 -213 0 7 -77 109 -170
226 -94 117 -175 220 -181 231 -8 15 -22 18 -77 18 l-67 0 40 -23z"/>
<path d="M2558 3655 c17 -8 35 -22 41 -34 6 -11 11 -77 11 -155 0 -79 4 -137
10 -141 6 -4 10 42 10 132 0 156 8 180 60 198 32 11 26 12 -64 12 -90 0 -96
-1 -68 -12z"/>
<path d="M2502 3034 c-184 -261 -331 -478 -328 -481 3 -4 8 -4 10 -2 18 21
666 948 666 953 0 3 -3 6 -7 6 -5 0 -158 -214 -341 -476z"/>
<path d="M2750 3151 c0 -9 9 -11 30 -6 48 10 137 -13 174 -46 19 -16 43 -51
55 -79 12 -27 24 -50 27 -50 5 0 -3 83 -12 127 -6 30 -79 53 -186 60 -66 4
-88 3 -88 -6z"/>
<path d="M2468 2761 c-22 -36 -25 -49 -17 -70 47 -123 171 -208 318 -218 69
-5 218 9 256 23 10 4 12 23 8 78 -8 103 1 142 35 154 20 8 -4 10 -98 10 -102
0 -115 -2 -70 -8 69 -10 80 -26 80 -111 0 -51 -5 -72 -20 -92 -29 -36 -81 -51
-156 -44 -88 8 -155 40 -209 98 -50 53 -72 95 -90 174 l-11 49 -26 -43z"/>
<path d="M440 1900 c0 -91 17 -109 22 -23 l3 57 43 -57 c23 -31 47 -57 52 -57
6 0 10 35 10 80 0 91 -17 109 -22 23 l-3 -57 -43 57 c-23 31 -47 57 -52 57 -6
0 -10 -35 -10 -80z"/>
<path d="M753 1968 c-6 -7 -23 -42 -38 -77 -26 -64 -25 -95 2 -53 11 15 25 22
48 22 23 0 37 -7 48 -22 27 -42 29 -11 2 53 -32 78 -47 96 -62 77z m32 -65 c5
-20 3 -23 -19 -23 -28 0 -32 10 -15 42 12 22 23 16 34 -19z"/>
<path d="M940 1965 c0 -9 9 -15 25 -15 24 0 25 -2 25 -65 0 -37 4 -65 10 -65
6 0 10 28 10 65 0 63 1 65 25 65 16 0 25 6 25 15 0 12 -13 15 -60 15 -47 0
-60 -3 -60 -15z"/>
<path d="M1180 1900 c0 -78 16 -112 22 -47 3 30 6 32 46 35 l42 3 0 -35 c0
-20 5 -36 10 -36 6 0 10 33 10 80 0 47 -4 80 -10 80 -5 0 -10 -16 -10 -35 0
-35 0 -35 -45 -35 -45 0 -45 0 -45 35 0 19 -4 35 -10 35 -6 0 -10 -33 -10 -80z"/>
<path d="M1493 1968 c-6 -7 -23 -42 -38 -77 -26 -64 -25 -95 2 -53 11 15 25
22 48 22 23 0 37 -7 48 -22 27 -42 29 -11 2 53 -32 78 -47 96 -62 77z m32 -65
c5 -20 3 -23 -19 -23 -28 0 -32 10 -15 42 12 22 23 16 34 -19z"/>
<path d="M1700 1900 c0 -91 17 -109 22 -23 l3 57 43 -57 c23 -31 47 -57 52
-57 6 0 10 35 10 80 0 91 -17 109 -22 23 l-3 -57 -43 57 c-23 31 -47 57 -52
57 -6 0 -10 -35 -10 -80z"/>
<path d="M1970 1900 c0 -47 4 -80 10 -80 6 0 10 33 10 80 0 47 -4 80 -10 80
-6 0 -10 -33 -10 -80z"/>
<path d="M2127 1973 c-4 -3 -7 -39 -7 -80 l0 -73 55 0 c30 0 55 5 55 10 0 6
-18 10 -40 10 -36 0 -40 3 -40 25 0 22 4 25 35 25 19 0 35 5 35 10 0 6 -16 10
-35 10 -28 0 -35 4 -35 20 0 17 7 20 40 20 29 0 40 4 40 15 0 11 -12 15 -48
15 -27 0 -52 -3 -55 -7z"/>
<path d="M2360 1900 l0 -80 45 0 c52 0 61 17 13 22 l-33 3 -3 68 c-4 94 -22
84 -22 -13z"/>
<path d="M2763 1972 c-35 -5 -66 -51 -59 -87 15 -78 136 -91 136 -15 0 38 -18
39 -22 3 -6 -57 -88 -31 -88 27 0 36 21 52 64 49 20 -2 36 1 36 6 0 12 -38 22
-67 17z"/>
<path d="M3004 1966 c-51 -22 -60 -81 -19 -121 49 -50 135 -15 135 55 0 28
-29 70 -49 70 -5 0 -15 2 -23 5 -7 2 -27 -2 -44 -9z m81 -36 c35 -39 -7 -99
-61 -86 -14 4 -30 17 -36 31 -25 56 54 102 97 55z"/>
<path d="M3247 1974 c-4 -4 -7 -40 -7 -81 0 -57 3 -73 14 -73 11 0 16 15 18
52 l3 53 38 -53 c21 -28 43 -52 48 -52 5 0 9 36 9 81 0 51 -4 78 -10 74 -5 -3
-10 -30 -10 -58 l-1 -52 -22 30 c-41 56 -72 87 -80 79z"/>
<path d="M3500 1965 c0 -11 12 -15 46 -15 l46 0 -46 -54 c-25 -29 -46 -58 -46
-65 0 -7 23 -11 65 -11 76 0 88 18 16 22 l-50 3 49 59 c27 33 47 63 44 68 -3
4 -32 8 -65 8 -46 0 -59 -3 -59 -15z"/>
<path d="M3764 1905 c-34 -75 -38 -114 -7 -67 21 30 89 32 98 2 3 -11 12 -20
20 -20 16 0 -46 152 -64 158 -6 2 -27 -31 -47 -73z m61 5 l16 -30 -31 0 c-16
0 -30 2 -30 5 0 7 23 55 26 55 2 0 10 -13 19 -30z"/>
<path d="M4006 1973 c-3 -3 -6 -39 -6 -80 l0 -73 45 0 c25 0 45 5 45 10 0 6
-13 10 -30 10 l-30 0 0 64 c0 60 -8 84 -24 69z"/>
<path d="M4217 1973 c-4 -3 -7 -39 -7 -80 l0 -73 55 0 c30 0 55 5 55 10 0 6
-18 10 -40 10 -36 0 -40 3 -40 25 0 22 4 25 35 25 19 0 35 5 35 10 0 6 -16 10
-35 10 -28 0 -35 4 -35 20 0 17 7 20 40 20 29 0 40 4 40 15 0 11 -12 15 -48
15 -27 0 -52 -3 -55 -7z"/>
<path d="M4440 1965 c0 -11 11 -15 40 -15 22 0 40 -3 40 -6 0 -3 -20 -29 -45
-57 -25 -29 -45 -55 -45 -59 0 -5 29 -8 65 -8 73 0 89 17 20 22 l-45 3 45 55
c25 30 45 61 45 67 0 9 -18 13 -60 13 -47 0 -60 -3 -60 -15z"/>
</g>
</svg>
